<?xml version="1.0" encoding="utf-8"?>
<!-- Generator: Adobe Illustrator 25.2.1, SVG Export Plug-In . SVG Version: 6.00 Build 0)  -->
<svg version="1.1" id="Layer_1" xmlns="http://www.w3.org/2000/svg" xmlns:xlink="http://www.w3.org/1999/xlink" x="0px" y="0px"
	 viewBox="0 0 150 150" style="enable-background:new 0 0 150 150;" xml:space="preserve">
<style type="text/css">
	.st0{fill:#F4C430;}
	.st1{fill:#006032;}
	.st2{fill:#01A431;}
</style>
<g id="monogram_1_">
	<polygon class="st2" points="125.82,2.9 77.72,2.9 67.66,17.93 115.75,17.93 	"/>
	<path class="st2" d="M125.82,88.53c-0.18-15.21-6.2-29.48-16.97-40.25C97.9,37.33,83.35,31.3,67.87,31.3
		c-3.18,0-6.36,0.26-9.49,0.78l0.03-0.03l5.94-9.11l3.3-5v0H49.59l-25.41,38.1h16.57c7.39-6.06,16.85-9.7,27.15-9.7
		c23.67,0,42.86,19.19,42.86,42.86c0,1.77-0.11,3.51-0.32,5.22c-0.03,0.25-0.06,0.5-0.1,0.75c-0.01,0.07-0.02,0.14-0.03,0.2
		c-0.03,0.24-0.07,0.48-0.11,0.72c-0.04,0.24-0.08,0.47-0.12,0.71c-0.02,0.11-0.04,0.23-0.06,0.34c-0.02,0.11-0.05,0.23-0.07,0.34
		c-0.05,0.27-0.11,0.54-0.17,0.81c-0.01,0.04-0.02,0.08-0.03,0.12c-0.03,0.16-0.07,0.31-0.11,0.47
		c-4.39,19.01-21.42,33.18-41.76,33.18v15.06c26.83,0,49.4-18.24,55.98-43.01c1.08-4.07,1.73-8.31,1.9-12.67
		c0.01-0.19,0.01-0.38,0.02-0.56c0.01-0.18,0.01-0.36,0.01-0.54c0.01-0.36,0.01-0.71,0.01-1.07
		C125.82,89.01,125.82,88.77,125.82,88.53z"/>
</g>
</svg>
